<svg width="24" height="24" xmlns="http://www.w3.org/2000/svg" fill-rule="evenodd" clip-rule="evenodd"><path d="M19.874 20.581c-1.046.885-2.398 1.419-3.874 1.419-1.825 0-3.46-.816-4.561-2.103-.47.068-.95.103-1.439.103-5.519 0-10-4.48-10-10 0-5.519 4.481-10 10-10 5.52 0 10 4.481 10 10 0 .489-.035.969-.103 1.439 1.287 1.101 2.103 2.736 2.103 4.561 0 1.476-.534 2.828-1.419 3.874l3.419 3.419-.707.707-3.419-3.419zm-3.874-9.581c2.76 0 5 2.24 5 5s-2.24 5-5 5-5-2.24-5-5 2.24-5 5-5zm-6 5c-1.983 0-3.744-.966-4.836-2.452l-2.608 1.505c1.621 2.381 4.353 3.947 7.444 3.947.264 0 .524-.015.781-.04-.491-.863-.774-1.859-.781-2.921v-.039zm4.5 2.48h-1v-2.004h1v2.004zm2 0h-1v-3.006h1v3.006zm2 0h-1v-4.96h1v4.96zm-3.502-8.397l.002-.083c0-2.76-2.24-5-5-5s-5 2.24-5 5 2.24 5 5 5l.083-.002c.423-2.509 2.406-4.492 4.915-4.915zm-13.998-.083c0-4.794 3.77-8.726 8.5-8.986v3.007c-3.076.254-5.5 2.838-5.5 5.979 0 .969.23 1.885.64 2.695l-2.6 1.501c-.664-1.254-1.04-2.681-1.04-4.196zm17.96.781c.025-.257.04-.517.04-.781 0-4.794-3.769-8.726-8.5-8.986v3.007c3.076.254 5.5 2.838 5.5 5.979h.039c1.061.007 2.058.29 2.921.781z"/></svg>