<svg xmlns="http://www.w3.org/2000/svg" xmlns:xlink="http://www.w3.org/1999/xlink" viewBox="0,0,256,256" width="64px" height="64px" fill-rule="nonzero"><g fill="#fb0404" fill-rule="nonzero" stroke="none" stroke-width="1" stroke-linecap="butt" stroke-linejoin="miter" stroke-miterlimit="10" stroke-dasharray="" stroke-dashoffset="0" font-family="none" font-weight="none" font-size="none" text-anchor="none" style="mix-blend-mode: normal"><g transform="scale(4,4)"><path d="M28,6c-2.209,0 -4,1.791 -4,4v2h-0.40039l-13.59961,2v3h44v-3l-13.59961,-2h-0.40039v-2c0,-2.209 -1.791,-4 -4,-4zM28,10h8v2h-8zM12,19l2.70117,33.32227c0.168,2.077 1.90428,3.67773 3.98828,3.67773h26.62305c2.084,0 3.81733,-1.59878 3.98633,-3.67578l2.625,-32.32422zM20,26c1.105,0 2,0.895 2,2v23h-3l-1,-23c0,-1.105 0.895,-2 2,-2zM32,26c1.657,0 3,1.343 3,3v22h-6v-22c0,-1.657 1.343,-3 3,-3zM44,26c1.105,0 2,0.895 2,2l-1,23h-3v-23c0,-1.105 0.895,-2 2,-2z"></path></g></g></svg>